<svg width="28" height="26" viewBox="0 0 28 26" fill="none" xmlns="http://www.w3.org/2000/svg">
<g id="Layer 2">
<g id="Layer 1">
<path id="Vector" d="M23.1376 13.1457C23.1537 14.7914 22.9648 16.4327 22.5753 18.0317C22.2482 19.3971 21.6775 20.6923 20.8905 21.8551C20.182 22.896 19.2346 23.7523 18.1276 24.3524C17.3014 24.7896 16.4 25.0668 15.4709 25.1693C12.9714 22.8802 14.0297 16.4687 16.6731 16.161C15.5241 19.3025 16.9985 21.2352 18.2449 21.3459C20.8529 21.5806 23.2705 17.1904 23.1 11.8262C23.1266 12.2601 23.1376 12.6984 23.1376 13.1457Z" fill="#875DE1"/>
<path id="Vector_2" d="M24.6174 21.8932C21.9408 24.8377 18.0133 26.5933 16.1271 25.6325C15.8833 25.5103 15.6594 25.3521 15.4629 25.1631C16.392 25.0606 17.2934 24.7835 18.1196 24.3462C19.2291 23.7491 20.1795 22.8951 20.8914 21.8556C21.6783 20.6928 22.249 19.3976 22.5761 18.0322C22.9656 16.4331 23.1545 14.7918 23.1385 13.1461C23.1385 12.7033 23.1385 12.2606 23.1008 11.8178V11.8023C23.0745 10.9628 22.9849 10.1266 22.833 9.30058C22.1489 5.54581 20.039 1.1313 18.0642 0C18.5364 0.12442 18.9995 0.281241 19.4501 0.469346C19.4711 0.470599 19.4912 0.478333 19.5077 0.491485C22.9569 1.94662 25.6901 4.70767 27.1102 8.17149C28.9123 12.6347 27.9316 18.2624 24.6174 21.8932Z" fill="#5525AC"/>
<path id="Vector_3" d="M11.9001 9.83451C13.0491 6.69963 11.5769 4.76912 10.3283 4.64957C7.80885 4.42818 5.45769 8.51724 5.45769 13.6269C5.45769 13.4653 5.45769 13.3059 5.45769 13.1399C5.44418 11.4745 5.63753 9.81392 6.03331 8.19623C6.36648 6.80163 6.94279 5.47665 7.73579 4.28206C8.44659 3.22123 9.3939 2.33985 10.5032 1.7073C11.3197 1.25665 12.2159 0.968691 13.1421 0.859375C15.5973 3.16847 14.5347 9.53121 11.9001 9.83451Z" fill="#875DE1"/>
<path id="Vector_4" d="M10.5186 26.0007C10.1954 25.91 9.87438 25.8148 9.56665 25.7085L9.48252 25.6753C9.42053 25.6554 9.35411 25.6288 9.2877 25.6022C9.22128 25.5757 9.15929 25.5469 9.09066 25.5203C5.63814 24.0602 2.90077 21.2974 1.47264 17.8315C0.0978127 14.4442 0.330272 10.3906 1.96856 7.04536C2.03054 6.91253 2.09696 6.78412 2.16338 6.65793C2.30285 6.40112 2.44676 6.14431 2.60616 5.89856C2.89962 5.43916 3.21739 4.99575 3.55813 4.57023C3.67325 4.43296 3.77952 4.29349 3.91457 4.15401C3.92735 4.13744 3.94141 4.12189 3.95663 4.10752L4.01641 4.03668C6.69965 1.13647 10.5806 -0.585938 12.4469 0.363823C12.7012 0.49495 12.9353 0.661963 13.1421 0.859736C12.2159 0.969053 11.3197 1.25701 10.5031 1.70766C9.39152 2.34155 8.44259 3.2253 7.73133 4.28906C6.93832 5.48365 6.36202 6.80863 6.02884 8.20323C5.63008 9.82055 5.43375 11.4811 5.44437 13.1469C5.44437 13.3129 5.44437 13.4723 5.44437 13.6339C5.44437 13.7955 5.44437 13.9217 5.45544 14.0767C5.4665 14.6239 5.50789 15.1701 5.57942 15.7128C5.59492 15.8899 5.62148 16.0603 5.65026 16.2352C5.67905 16.4101 5.69676 16.5408 5.72332 16.6957C5.73439 16.7644 5.74989 16.833 5.76539 16.9038C5.8318 17.2913 5.92036 17.6699 6.01113 18.044C6.1019 18.4181 6.21259 18.7702 6.33214 19.1155C6.3406 19.152 6.35246 19.1876 6.36757 19.2218C7.34389 22.2305 8.97332 25.1152 10.5186 26.0007Z" fill="#5525AC"/>
</g>
</g>
</svg>
