<svg width="42" height="21" viewBox="0 0 42 21" fill="none" xmlns="http://www.w3.org/2000/svg">
<path d="M41.0143 7.06129L35.7293 12.3463C35.6364 12.4396 35.526 12.5136 35.4044 12.5641C35.2828 12.6146 35.1524 12.6406 35.0208 12.6406C34.8891 12.6406 34.7588 12.6146 34.6372 12.5641C34.5156 12.5136 34.4052 12.4396 34.3123 12.3463L29.0283 7.06129C28.935 6.96838 28.861 6.85797 28.8105 6.73638C28.76 6.6148 28.734 6.48444 28.734 6.35279C28.734 6.22114 28.76 6.09078 28.8105 5.96919C28.861 5.84761 28.935 5.7372 29.0283 5.64429L34.3123 0.359289C34.4052 0.266012 34.5156 0.192 34.6372 0.141498C34.7588 0.0909967 34.8891 0.0649998 35.0208 0.0649998C35.1524 0.0649998 35.2828 0.0909967 35.4044 0.141498C35.526 0.192 35.6364 0.266012 35.7293 0.359289L41.0133 5.64429C41.1066 5.7372 41.1806 5.84761 41.2311 5.96919C41.2816 6.09078 41.3076 6.22114 41.3076 6.35279C41.3076 6.48444 41.2816 6.6148 41.2311 6.73638C41.1806 6.85797 41.1076 6.96838 41.0143 7.06129ZM20.3843 0.294289C20.2914 0.201012 20.181 0.127 20.0594 0.0764983C19.9378 0.0259966 19.8074 0 19.6758 0C19.5441 0 19.4138 0.0259966 19.2922 0.0764983C19.1706 0.127 19.0602 0.201012 18.9673 0.294289L13.6843 5.57829C13.5914 5.67157 13.481 5.74558 13.3594 5.79608C13.2378 5.84658 13.1074 5.87258 12.9758 5.87258C12.8441 5.87258 12.7138 5.84658 12.5922 5.79608C12.4706 5.74558 12.3602 5.67157 12.2673 5.57829L6.99529 0.307289C6.90238 0.214012 6.79197 0.14 6.67038 0.0894983C6.5488 0.0389966 6.41844 0.013 6.28679 0.013C6.15514 0.013 6.02478 0.0389966 5.90319 0.0894983C5.78161 0.14 5.6712 0.214012 5.57829 0.307289L0.294289 5.59129C0.201012 5.6842 0.127 5.79461 0.0764983 5.91619C0.0259966 6.03778 0 6.16813 0 6.29979C0 6.43144 0.0259966 6.5618 0.0764983 6.68338C0.127 6.80497 0.201012 6.91538 0.294289 7.00829L13.2683 19.9833C13.3612 20.0766 13.4716 20.1506 13.5932 20.2011C13.7148 20.2516 13.8451 20.2776 13.9768 20.2776C14.1084 20.2776 14.2388 20.2516 14.3604 20.2011C14.482 20.1506 14.5924 20.0766 14.6853 19.9833L16.8863 17.7823L19.9793 14.7023C20.1675 14.5154 20.422 14.4106 20.6873 14.4106C20.9525 14.4106 21.207 14.5154 21.3953 14.7023L26.6803 19.9873C26.7732 20.0806 26.8836 20.1546 27.0052 20.2051C27.1268 20.2556 27.2571 20.2816 27.3888 20.2816C27.5204 20.2816 27.6508 20.2556 27.7724 20.2051C27.894 20.1546 28.0044 20.0806 28.0973 19.9873L33.3813 14.7033C33.4746 14.6104 33.5486 14.5 33.5991 14.3784C33.6496 14.2568 33.6756 14.1264 33.6756 13.9948C33.6756 13.8631 33.6496 13.7328 33.5991 13.6112C33.5486 13.4896 33.4746 13.3792 33.3813 13.2863L20.3843 0.294289Z" fill="url(#paint0_linear_607_6)"/>
<defs>
<linearGradient id="paint0_linear_607_6" x1="41.3073" y1="10.1403" x2="0.00228963" y2="10.1403" gradientUnits="userSpaceOnUse">
<stop offset="0.078" stop-color="#109AFA"/>
<stop offset="0.369" stop-color="#0A67B4"/>
<stop offset="0.659" stop-color="#043973"/>
<stop offset="0.796" stop-color="#02275A"/>
</linearGradient>
</defs>
</svg>
